<svg id="ePatwD6Jo051" xmlns="http://www.w3.org/2000/svg" xmlns:xlink="http://www.w3.org/1999/xlink" viewBox="0 0 210 297" shape-rendering="geometricPrecision" text-rendering="geometricPrecision"><style><![CDATA[#ePatwD6Jo057 {animation: ePatwD6Jo057_c_o 3000ms linear infinite normal forwards}@keyframes ePatwD6Jo057_c_o { 0% {opacity: 0.66} 6.666667% {opacity: 0.66} 20% {opacity: 0} 30% {opacity: 0.6} 40% {opacity: 0} 66.666667% {opacity: 0} 100% {opacity: 0.52}} #ePatwD6Jo0511 {animation: ePatwD6Jo0511_c_o 3000ms linear infinite normal forwards}@keyframes ePatwD6Jo0511_c_o { 0% {opacity: 1} 33.333333% {opacity: 1} 40% {opacity: 0} 66.666667% {opacity: 0} 76.666667% {opacity: 1} 100% {opacity: 1}} #ePatwD6Jo0544 {animation: ePatwD6Jo0544_c_o 3000ms linear infinite normal forwards}@keyframes ePatwD6Jo0544_c_o { 0% {opacity: 1} 40% {opacity: 1} 66.666667% {opacity: 0} 86.666667% {opacity: 0} 100% {opacity: 1}} #ePatwD6Jo0545_to {animation: ePatwD6Jo0545_to__to 3000ms linear infinite normal forwards}@keyframes ePatwD6Jo0545_to__to { 0% {transform: translate(197.797284px,197.92517px)} 33.333333% {transform: translate(-16.576707px,203.48637px);animation-timing-function: step-end} 63.333333% {transform: translate(203.758972px,212.87056px)} 100% {transform: translate(-26.895435px,224.801532px)}} #ePatwD6Jo0565_to {animation: ePatwD6Jo0565_to__to 3000ms linear infinite normal forwards}@keyframes ePatwD6Jo0565_to__to { 0% {transform: translate(219.1172px,146.352447px)} 10% {transform: translate(219.1172px,146.352447px)} 70% {transform: translate(-13.697391px,153.459771px)} 100% {transform: translate(-13.697391px,153.459771px)}} #ePatwD6Jo0584_to {animation: ePatwD6Jo0584_to__to 3000ms linear infinite normal forwards}@keyframes ePatwD6Jo0584_to__to { 0% {transform: translate(228.515017px,107.012741px)} 100% {transform: translate(-13.978688px,109.343208px)}} #ePatwD6Jo05103_to {animation: ePatwD6Jo05103_to__to 3000ms linear infinite normal forwards}@keyframes ePatwD6Jo05103_to__to { 0% {transform: translate(-9.969608px,131.771141px)} 100% {transform: translate(211.630841px,132.949152px)}}]]></style><defs><linearGradient id="ePatwD6Jo053-fill" x1="110.5007" y1="40.234505" x2="105.63118" y2="277.717367" spreadMethod="pad" gradientUnits="userSpaceOnUse" gradientTransform="matrix(1 0 0 1 0 0)"><stop id="ePatwD6Jo053-fill-0" offset="0%" stop-color="rgb(43,0,0)"/><stop id="ePatwD6Jo053-fill-1" offset="100%" stop-color="rgb(212,0,0)"/></linearGradient><radialGradient id="ePatwD6Jo057-fill" cx="0" cy="0" r="0.392192" spreadMethod="pad" gradientUnits="objectBoundingBox" gradientTransform="matrix(1 0 0 1 0.489364 0.446579)"><stop id="ePatwD6Jo057-fill-0" offset="0%" stop-color="rgb(206,0,181)"/><stop id="ePatwD6Jo057-fill-1" offset="100%" stop-color="rgba(198,50,192,0)"/></radialGradient><linearGradient id="ePatwD6Jo0546-fill" x1="94.49582" y1="215.514359" x2="121.809144" y2="216.73116" spreadMethod="pad" gradientUnits="userSpaceOnUse" gradientTransform="matrix(1 0 0 1 0 0)"><stop id="ePatwD6Jo0546-fill-0" offset="0%" stop-color="rgb(255,221,85)"/><stop id="ePatwD6Jo0546-fill-1" offset="100%" stop-color="rgba(255,221,85,0)"/></linearGradient><linearGradient id="ePatwD6Jo0547-fill" x1="85.860645" y1="215.236569" x2="108.598955" y2="203.676658" spreadMethod="pad" gradientUnits="userSpaceOnUse" gradientTransform="matrix(1 0 0 1 0 0)"><stop id="ePatwD6Jo0547-fill-0" offset="0%" stop-color="rgb(85,0,0)"/><stop id="ePatwD6Jo0547-fill-1" offset="100%" stop-color="rgba(85,0,0,0)"/></linearGradient><linearGradient id="ePatwD6Jo0566-fill" x1="120.02211" y1="169.457961" x2="134.002336" y2="170.382782" spreadMethod="pad" gradientUnits="userSpaceOnUse" gradientTransform="matrix(1 0 0 1 0 0)"><stop id="ePatwD6Jo0566-fill-0" offset="0%" stop-color="rgb(255,221,85)"/><stop id="ePatwD6Jo0566-fill-1" offset="100%" stop-color="rgba(255,221,85,0)"/></linearGradient><linearGradient id="ePatwD6Jo0567-fill" x1="115.602222" y1="169.246827" x2="127.240743" y2="160.460794" spreadMethod="pad" gradientUnits="userSpaceOnUse" gradientTransform="matrix(1 0 0 1 0 0)"><stop id="ePatwD6Jo0567-fill-0" offset="0%" stop-color="rgb(85,0,0)"/><stop id="ePatwD6Jo0567-fill-1" offset="100%" stop-color="rgba(85,0,0,0)"/></linearGradient><linearGradient id="ePatwD6Jo0585-fill" x1="135.318417" y1="141.6572" x2="151.350135" y2="142.581333" spreadMethod="pad" gradientUnits="userSpaceOnUse" gradientTransform="matrix(1 0 0 1 0 0)"><stop id="ePatwD6Jo0585-fill-0" offset="0%" stop-color="rgb(255,221,85)"/><stop id="ePatwD6Jo0585-fill-1" offset="100%" stop-color="rgba(255,221,85,0)"/></linearGradient><linearGradient id="ePatwD6Jo0586-fill" x1="130.249939" y1="141.446232" x2="143.596326" y2="132.666739" spreadMethod="pad" gradientUnits="userSpaceOnUse" gradientTransform="matrix(1 0 0 1 0 0)"><stop id="ePatwD6Jo0586-fill-0" offset="0%" stop-color="rgb(85,0,0)"/><stop id="ePatwD6Jo0586-fill-1" offset="100%" stop-color="rgba(85,0,0,0)"/></linearGradient><linearGradient id="ePatwD6Jo05104-fill" x1="86.87163" y1="138.474702" x2="70.633576" y2="139.349462" spreadMethod="pad" gradientUnits="userSpaceOnUse" gradientTransform="matrix(1 0 0 1 0 0)"><stop id="ePatwD6Jo05104-fill-0" offset="0%" stop-color="rgb(255,221,85)"/><stop id="ePatwD6Jo05104-fill-1" offset="100%" stop-color="rgba(255,221,85,0)"/></linearGradient><linearGradient id="ePatwD6Jo05105-fill" x1="92.005334" y1="138.275011" x2="78.487173" y2="129.96456" spreadMethod="pad" gradientUnits="userSpaceOnUse" gradientTransform="matrix(1 0 0 1 0 0)"><stop id="ePatwD6Jo05105-fill-0" offset="0%" stop-color="rgb(85,0,0)"/><stop id="ePatwD6Jo05105-fill-1" offset="100%" stop-color="rgba(85,0,0,0)"/></linearGradient></defs><g id="ePatwD6Jo052"><rect id="ePatwD6Jo053" width="211.667" height="300.038" rx="0" ry="0" transform="matrix(1 0 0 1.029443 -0.08585 -3.923324)" fill="url(#ePatwD6Jo053-fill)" stroke="none" stroke-width="0.264583"/><path id="ePatwD6Jo054" d="M183.5253,225.23425C230.55263,265.97999,230.2504,265.92559,230.2504,265.92559L231.27799,266.65999" fill="none" stroke="rgb(0,0,0)" stroke-width="0.264583"/><path id="ePatwD6Jo055" d="M230.2504,265.92559C230.97575,207.71739,231.39888,210.7638,231.39888,210.7638L183.5253,225.23425L232.42647,209.9206L231.822,208.12539" fill="none" stroke="rgb(0,0,0)" stroke-width="0.264583"/><path id="ePatwD6Jo056" d="M834.50414,971.97346L800.35022,942.12211L800.35022,902.36761L800.35022,862.61312L835.77047,862.61312L871.19072,862.61312L870.72802,899.18501C870.47353,919.29955,869.90368,950.62218,869.46169,968.79085L868.65806,1001.8248Z" transform="matrix(0.264583 0 0 0.264583 0 0)" opacity="0.810897" fill="rgb(43,0,0)" stroke="rgb(0,0,0)" stroke-width="1.20899" stroke-opacity="0"/></g><path id="ePatwD6Jo057" style="mix-blend-mode:lighten" d="M108.47978,227.03313C51.53732,187.95722,47.44778,128.50663,99.34555,94.24653C151.24332,59.98643,239.47575,63.89041,296.41821,102.96632C353.36067,142.04223,357.45021,201.49282,305.55244,235.75292C253.65467,270.01302,165.42224,266.10904,108.47978,227.03313Z" transform="matrix(1 0 0 1 -6.117439 -33.159707)" opacity="0.66" fill="url(#ePatwD6Jo057-fill)" stroke="none" stroke-width="1"/><g id="ePatwD6Jo058"><rect id="ePatwD6Jo059" width="91.7577" height="49.341" rx="0" ry="0" transform="matrix(1 0 0 1 161.583 178.668)" fill="rgb(80,22,22)" stroke="rgb(0,0,0)" stroke-width="0.264583" stroke-opacity="0"/><rect id="ePatwD6Jo0510" width="79.7893" height="3.94401" rx="0" ry="0" transform="matrix(1 0 0 1 163.336 143.824)" fill="rgb(80,22,22)" stroke="rgb(0,0,0)" stroke-width="0.264583" stroke-opacity="0"/><text id="ePatwD6Jo0511" dx="0" dy="0" font-family="&quot;sans-serif&quot;" font-size="55.5008" transform="matrix(0.413187 0 0 0.817477 -86.799959 -246.748837)" fill="rgb(0,0,0)" stroke="none" stroke-width="1"><tspan id="ePatwD6Jo0512" x="622.13086" y="476.71534" font-family="sans-serif" font-size="55.5008" font-weight="bold" fill="rgb(255,35,35)" stroke="none" stroke-width="1"><![CDATA[NEXUS]]></tspan></text><text id="ePatwD6Jo0513" style="mix-blend-mode:soft-light" dx="0" dy="0" font-family="&quot;sans-serif&quot;" font-size="55.5008" transform="matrix(0.413187 0 0 0.817477 -88.521764 -246.060793)" opacity="0.29" fill="rgb(255,0,102)" stroke="none" stroke-width="1"><tspan id="ePatwD6Jo0514" x="622.13086" y="476.71534" font-family="sans-serif" font-size="55.5008" fill="rgb(255,0,102)" stroke="none" stroke-width="1"><![CDATA[NEXUS]]></tspan></text><path id="ePatwD6Jo0515" d="M173.79342,227.16546C173.41616,226.99465,173.00938,227.24836,172.65152,227.37397C172.15173,227.54938,171.56196,227.94156,171.07333,227.65506C170.62285,227.39093,171.43917,227.26325,171.65413,227.23164C172.59821,227.09281,173.56206,227.09973,174.5032,227.29354C177.73618,227.95933,180.85008,229.07613,183.97556,230.11493C187.75015,231.36947,191.2189,233.4162,194.34609,235.85435C197.31829,238.17166,200.11527,240.72707,202.55136,243.61014C207.86699,249.90111,211.73309,257.32625,214.38647,265.09692C215.74954,269.08879,217.73911,281.56107,217.4962,277.34962C217.14699,271.29519,216.26083,265.28657,215.96584,259.22654C215.27987,245.13465,215.84656,231.01412,216.87186,216.95693C217.05105,214.50018,217.07348,212.0311,217.3368,209.58106C217.3565,209.3973,217.3139,208.69385,217.18014,209.21396C217.05589,209.69717,216.97713,210.19105,216.89179,210.6822" fill="none" stroke="rgb(0,0,0)" stroke-width="0.264583"/><path id="ePatwD6Jo0516" d="M816.24876,1021.2254C812.30296,1002.8362,807.40709,989.01749,797.96129,969.60858C780.90668,934.56534,761.02562,909.86236,732.62588,888.42682C720.82975,879.52335,709.48323,873.58603,693.35476,867.87733L678.8469,862.74224L747.58282,862.67764L816.31873,862.61304L815.61164,871.9827C812.81001,909.10734,813.86609,973.55728,817.94132,1014.1551C818.999,1024.692,819.67507,1033.5023,819.44369,1033.7337C819.2123,1033.9651,817.77458,1028.3363,816.24876,1021.2253Z" transform="matrix(0.264583 0 0 0.264583 0 0)" opacity="0.810897" fill="rgb(43,0,0)" stroke="rgb(0,0,0)" stroke-width="1.20899" stroke-opacity="0"/><path id="ePatwD6Jo0517" d="M815.00698,1013.1322C809.23649,987.81508,791.33528,951.33675,772.69731,926.91531C759.11806,909.12235,737.35763,889.35105,720.55011,879.53493C713.66334,875.51284,694.79334,867.28935,686.70533,864.78548C685.70791,864.4767,714.2386,863.87528,750.10686,863.44899C785.97513,863.02271,815.4197,862.79625,815.53926,862.94577C815.65882,863.09528,815.2317,870.01817,814.59011,878.32996C813.18731,896.50336,814.1847,977.90389,816.07604,999.60121C817.6926,1018.1462,817.29547,1023.1726,815.00698,1013.1322Z" transform="matrix(0.264583 0 0 0.264583 0 0)" opacity="0.810897" fill="rgb(80,22,22)" stroke="rgb(0,0,0)" stroke-width="1.20899" stroke-opacity="0"/><path id="ePatwD6Jo0518" d="M814.29582,1009.2593C812.81123,1001.266,805.18544,982.24206,796.95315,965.9948C779.6869,931.91806,760.29147,908.10572,733.25137,887.78623C723.34168,880.33952,716.50313,876.51248,702.3897,870.51517L690.36562,865.4057L707.57704,864.61832C717.04332,864.18527,744.93977,863.82896,769.56916,863.82653L814.34986,863.82253L813.85182,904.90511C813.57788,927.50053,813.99375,961.02046,814.77597,979.39384C815.55817,997.76723,815.96195,1013.0362,815.67324,1013.3249C815.38455,1013.6136,814.7647,1011.7843,814.29582,1009.2597Z" transform="matrix(0.264583 0 0 0.264583 0 0)" opacity="0.810897" fill="rgb(80,22,22)" stroke="rgb(0,0,0)" stroke-width="1.20899" stroke-opacity="0"/><path id="ePatwD6Jo0519" d="M811.52067,1000.126C809.35263,993.3155,804.31342,981.00705,800.32243,972.77389C786.44889,944.15361,772.87575,924.32399,755.12107,906.73717C739.93528,891.69497,726.02957,881.6661,709.6761,873.96205C702.02925,870.35964,694.23253,866.60445,692.35004,865.61716C690.46756,864.62988,685.9792,863.82211,682.37589,863.82211C678.77259,863.82211,675.82443,863.37754,675.82443,862.83417C675.82443,861.36703,659.17376,857.74382,652.51346,857.76167C648.50109,857.77257,646.51996,858.3319,646.03693,859.59065C645.46456,861.08221,642.35947,861.40413,628.54454,861.40413L611.74806,861.40413L611.74806,768.91653L611.74806,676.42893L784.63338,676.42893L957.5187,676.42893L957.5187,768.91653L957.5187,861.40413L888.00187,861.40413L818.48505,861.40413L818.49715,856.87042C818.50315,854.37688,819.31129,840.36773,820.29225,825.73898C822.54432,792.15479,822.58603,787.90779,820.64468,789.84914C819.78268,790.71114,819.28762,793.96563,819.4453,797.73375C819.59297,801.26295,818.48538,819.88878,816.98398,839.12449C814.74812,867.76275,814.2536,883.29714,814.2536,924.87601C814.2536,952.80364,814.65463,983.9502,815.14477,994.09059C815.63491,1004.231,815.90694,1012.5234,815.74926,1012.5182C815.5916,1012.5182,813.68873,1006.9365,811.52068,1000.126ZM717.8773,864.1441C714.74111,863.89595,709.30066,863.89338,705.78742,864.1381C702.27418,864.38342,704.84015,864.58644,711.48959,864.58959C718.13902,864.59359,721.01349,864.39229,717.8773,864.14415Z" transform="matrix(0.264583 0 0 0.264583 0 0)" opacity="0.810897" fill="rgb(80,22,22)" stroke="rgb(0,0,0)" stroke-width="1.20899" stroke-opacity="0"/><path id="ePatwD6Jo0520" d="M811.42015,999.71995C806.75924,985.18863,791.93611,954.95458,782.135,939.98837C768.83715,919.68265,751.93098,901.74792,732.14688,886.95902C724.21186,881.02747,700.10151,868.42987,693.52537,866.77936C691.76918,866.33859,690.33229,865.49289,690.33229,864.90003C690.33229,864.30718,685.97993,863.82211,680.66039,863.82211C673.42496,863.82211,670.98848,863.41758,670.98848,862.21627C670.98848,858.52381,647.39886,856.0415,646.03693,859.59065C645.46456,861.08221,642.35947,861.40413,628.54454,861.40413L611.74806,861.40413L611.74806,768.91653L611.74806,676.42893L784.63338,676.42893L957.5187,676.42893L957.5187,768.91653L957.5187,861.40413L888.00187,861.40413L818.48505,861.40413L818.48705,856.26593C818.48805,853.43992,818.99977,844.05515,819.62286,835.41088C822.10881,800.92217,822.45645,788.17626,820.86985,789.69066C819.98997,790.5305,819.43456,793.86357,819.52449,797.76423C819.66055,803.66648,818.49948,822.13943,814.84066,872.28502C813.38466,892.23997,813.40417,948.05547,814.87946,983.41385C815.52921,998.98606,815.926,1011.8611,815.76122,1012.025C815.59644,1012.1889,813.64253,1006.6516,811.4192,999.71995Z" transform="matrix(0.264583 0 0 0.264583 0 0)" opacity="0.810897" fill="rgb(80,22,22)" stroke="rgb(0,0,0)" stroke-width="1.20899" stroke-opacity="0"/><path id="ePatwD6Jo0521" d="M813.11904,1005.6099C811.91968,1001.8052,810.81441,998.13287,810.66288,997.44926C810.27227,995.6872,808.90851,992.35776,805.44928,984.72093C803.79268,981.06374,802.42107,977.39144,802.40125,976.56026C802.38145,975.72908,801.91184,975.04902,801.35771,975.04902C800.80359,975.04902,800.44978,974.64099,800.57147,974.14228C800.85421,972.98348,795.33452,961.59815,793.58787,959.73739C792.86082,958.96284,791.52368,956.51464,790.61645,954.29695C789.70923,952.07925,788.26392,949.54585,787.40465,948.66717C786.54539,947.7885,785.84236,946.33772,785.84236,945.4432C785.84236,944.54869,785.40265,943.63548,784.86525,943.41383C783.78506,942.96833,776.17046,932.10141,776.17046,931.00537C776.17046,930.62647,775.21838,929.29299,774.05473,928.04207C772.89108,926.79116,770.85091,924.35454,769.52102,922.62737C765.67597,917.63365,742.39951,894.36909,741.82404,894.94455C741.53748,895.23112,740.38396,894.06295,739.26067,892.34861C738.13739,890.63426,736.82709,889.47343,736.34889,889.76898C735.8707,890.06451,733.72045,888.69973,731.57057,886.73612C729.42069,884.77251,727.15123,883.16592,726.52732,883.16592C725.90342,883.16592,725.39295,882.73341,725.39295,882.2048C725.39295,881.67618,722.94475,880.23408,719.9525,879.00013C716.96026,877.76619,714.51206,876.20386,714.51206,875.52829C714.51206,874.85273,714.1722,874.63985,713.75683,875.05524C713.34145,875.47061,710.48954,874.4732,707.41926,872.83875C704.34897,871.20432,701.15253,869.86705,700.31606,869.86705C699.47959,869.86705,698.79521,869.29089,698.79521,868.5867C698.79521,867.88252,698.25116,867.64261,697.58622,868.05356C696.92128,868.46452,696.37723,868.24168,696.37723,867.55836C696.37723,866.87504,695.63131,866.60221,694.71964,866.95206C693.80796,867.30189,692.21468,866.74077,691.17903,865.70512C690.14337,864.66946,687.76103,863.80782,685.88494,863.79035C684.00885,863.77285,677.03342,862.42049,670.38399,860.78505C656.31006,857.32353,647.08065,856.87076,646.03693,859.59065C645.46456,861.08221,642.35947,861.40413,628.54454,861.40413L611.74806,861.40413L611.74806,768.91653L611.74806,676.42893L784.63338,676.42893L957.5187,676.42893L957.5187,768.91653L957.5187,861.40413L888.00187,861.40413L818.48505,861.40413L818.49715,856.26593C818.50315,853.43992,819.31129,839.15875,820.29225,824.52999C822.36432,793.63012,822.45223,790.07382,821.14398,790.07382C820.61126,790.07382,819.46544,802.99488,818.59772,818.78729C817.72999,834.5797,816.32087,853.75728,815.46633,861.40413C813.75986,876.67446,813.77762,974.28005,815.49133,998.92654C816.01148,1006.4072,816.18126,1012.5277,815.86863,1012.5277C815.556,1012.5277,814.31893,1009.4147,813.11958,1005.6099Z" transform="matrix(0.264583 0 0 0.264583 0 0)" opacity="0.810897" fill="rgb(80,22,22)" stroke="rgb(0,0,0)" stroke-width="1.20899" stroke-opacity="0"/><path id="ePatwD6Jo0522" d="M812.42476,1003.1426C809.27248,992.85765,798.67806,968.55342,792.80041,958.12319C779.53958,934.59113,768.90342,920.67213,751.22742,903.71872C733.7625,886.96777,720.73911,878.32191,699.3997,869.31179C696.73993,868.18875,692.93162,866.54467,690.93679,865.65829C686.35092,863.62059,662.69359,858.67209,654.55227,858.0476C650.06008,857.70303,647.87417,858.0934,646.47796,859.48962C644.91936,861.04822,641.5132,861.40413,628.15575,861.40413L611.74806,861.40413L611.74806,768.91653L611.74806,676.42893L784.63338,676.42893L957.5187,676.42893L957.5187,768.91653L957.5187,861.40413L888.00187,861.40413L818.48505,861.40413L818.48505,856.04794C818.48505,853.10203,819.33059,837.81473,820.36404,822.07613C822.14274,794.98789,822.21306,786.84719,820.63,791.28281C820.06625,792.86242,817.81309,825.5441,814.79546,875.91199C813.44059,898.52621,813.49219,940.3297,814.92148,978.03176C815.62129,996.49147,815.9909,1011.7978,815.74283,1012.0459C815.49477,1012.294,814.00163,1008.2875,812.42476,1003.1426Z" transform="matrix(0.264583 0 0 0.264583 0 0)" opacity="0.810897" fill="rgb(80,22,22)" stroke="rgb(0,0,0)" stroke-width="1.20899" stroke-opacity="0"/><path id="ePatwD6Jo0523" d="M812.50931,1003.7349C805.55935,982.10078,792.21124,955.23269,778.13708,934.54792C769.38525,921.68537,745.53197,897.14002,732.60264,887.69238C719.82642,878.35662,693.1624,865.41502,682.47387,863.36198C680.47904,862.97881,673.73191,861.56548,667.48025,860.22124C653.92495,857.30655,648.81375,857.15383,646.37693,859.59065C644.94312,861.02446,641.12839,861.40413,628.15575,861.40413L611.74806,861.40413L611.74806,768.91653L611.74806,676.42893L784.63338,676.42893L957.5187,676.42893L957.5187,768.91653L957.5187,861.40413L887.81607,861.40413L818.11346,861.40413L818.87961,847.19852C819.301,839.38543,820.23665,823.55344,820.95884,812.01631C821.68103,800.47919,821.97671,790.74452,821.61593,790.38373C820.38124,789.14904,819.98019,793.1398,818.00214,826.34347C816.91278,844.62942,815.79288,861.22278,815.51349,863.21761C813.94397,874.42342,813.50838,937.90795,814.76388,972.47117C815.54568,993.99389,815.98979,1011.7989,815.7508,1012.0379C815.51179,1012.2769,814.05312,1008.5406,812.50931,1003.7349Z" transform="matrix(0.264583 0 0 0.264583 0 0)" opacity="0.810897" fill="rgb(80,22,22)" stroke="rgb(0,0,0)" stroke-width="1.20899" stroke-opacity="0"/><rect id="ePatwD6Jo0524" width="1.11236" height="23.3596" rx="0" ry="0" transform="matrix(1 0 0 1 166.854 162.775)" opacity="0.810897" fill="rgb(80,22,22)" stroke="rgb(0,0,0)" stroke-width="1.665" stroke-opacity="0"/><rect id="ePatwD6Jo0525" width="1.11236" height="21.5056" rx="0" ry="0" transform="matrix(1 0 0 1 178.719 162.775)" opacity="0.810897" fill="rgb(80,22,22)" stroke="rgb(0,0,0)" stroke-width="1.665" stroke-opacity="0"/><rect id="ePatwD6Jo0526" width="1.48315" height="23.7303" rx="0" ry="0" transform="matrix(1 0 0 1 190.955 162.405)" opacity="0.810897" fill="rgb(80,22,22)" stroke="rgb(0,0,0)" stroke-width="1.665"/><rect id="ePatwD6Jo0527" width="1.11236" height="21.8764" rx="0" ry="0" transform="matrix(1 0 0 1 202.449 162.405)" opacity="0.810897" fill="rgb(80,22,22)" stroke="rgb(0,0,0)" stroke-width="1.665"/><rect id="ePatwD6Jo0528" width="58.9551" height="2.22472" rx="0" ry="0" transform="matrix(1 0 0 1 166.854 162.775)" opacity="0.810897" fill="rgb(80,22,22)" stroke="rgb(0,0,0)" stroke-width="1.665" stroke-opacity="0"/><rect id="ePatwD6Jo0529" width="2.0346" height="54.9172" rx="0" ry="0" transform="matrix(1 0 0 1 163.336 143.824)" opacity="0.810897" fill="rgb(80,22,22)" stroke="rgb(0,0,0)" stroke-width="1.665" stroke-opacity="0"/><rect id="ePatwD6Jo0530" width="65.6292" height="60.0674" rx="0" ry="0" transform="matrix(1 0 0 1 181.315 156.843)" opacity="0.810897" fill="rgb(80,22,22)" stroke="rgb(0,0,0)" stroke-width="1.665" stroke-opacity="0"/><rect id="ePatwD6Jo0531" width="43.2863" height="55.3843" rx="0" ry="0" transform="matrix(1 0 0 1 189.938 228.638)" opacity="0.810897" fill="rgb(80,22,22)" stroke="rgb(0,0,0)" stroke-width="1.665" stroke-opacity="0"/><rect id="ePatwD6Jo0532" width="53.3933" height="33.3708" rx="0" ry="0" transform="matrix(1 0 0 1 165 39.6742)" opacity="0.810897" fill="rgb(80,22,22)" stroke="rgb(0,0,0)" stroke-width="1.665" stroke-opacity="0"/><rect id="ePatwD6Jo0533" width="19.2809" height="50.0562" rx="0" ry="0" transform="matrix(1 0 0 1 199.483 10.7528)" opacity="0.810897" fill="rgb(80,22,22)" stroke="rgb(0,0,0)" stroke-width="1.665" stroke-opacity="0"/><rect id="ePatwD6Jo0534" width="57.1011" height="47.4607" rx="0" ry="0" transform="matrix(1 0 0 1 177.236 -6.30337)" opacity="0.810897" fill="rgb(80,22,22)" stroke="rgb(0,0,0)" stroke-width="1.665" stroke-opacity="0"/><rect id="ePatwD6Jo0535" width="66.3708" height="41.5281" rx="0" ry="0" transform="matrix(1 0 0 1 183.169 55.2472)" opacity="0.810897" fill="rgb(80,22,22)" stroke="rgb(0,0,0)" stroke-width="1.665" stroke-opacity="0"/><rect id="ePatwD6Jo0536" width="34.8539" height="33" rx="0" ry="0" transform="matrix(1 0 0 1 -21.5056 43.7528)" opacity="0.810897" fill="rgb(80,22,22)" stroke="rgb(0,0,0)" stroke-width="1.665" stroke-opacity="0"/><rect id="ePatwD6Jo0537" width="91.9551" height="113.09" rx="0" ry="0" transform="matrix(1 0 0 1 -45.236 52.6517)" opacity="0.884615" fill="rgb(80,22,22)" stroke="rgb(0,0,0)" stroke-width="1.665" stroke-opacity="0"/><rect id="ePatwD6Jo0538" width="1.11236" height="5.5618" rx="0" ry="0" transform="matrix(1 0 0 1 -6.11798 66.1854)" fill="rgb(255,42,42)" stroke="rgb(0,0,0)" stroke-width="1.665" stroke-opacity="0"/><rect id="ePatwD6Jo0539" width="97.1461" height="91.5843" rx="0" ry="0" transform="matrix(1 0 0 1 -72.6742 118.281)" opacity="0.810897" fill="rgb(80,22,22)" stroke="rgb(0,0,0)" stroke-width="1.665" stroke-opacity="0"/><rect id="ePatwD6Jo0540" width="49.6854" height="41.8989" rx="0" ry="0" transform="matrix(1 0 0 1 -40.4157 193.18)" fill="rgb(80,22,22)" stroke="rgb(0,0,0)" stroke-width="1.665" stroke-opacity="0"/><rect id="ePatwD6Jo0541" width="1.11236" height="5.5618" rx="0" ry="0" transform="matrix(1 0 0 1 2.22472 54.9691)" fill="rgb(255,42,42)" stroke="rgb(0,0,0)" stroke-width="1.665" stroke-opacity="0"/><rect id="ePatwD6Jo0542" width="1.11236" height="5.5618" rx="0" ry="0" transform="matrix(1 0 0 1 8.25 66)" fill="rgb(255,42,42)" stroke="rgb(0,0,0)" stroke-width="1.665" stroke-opacity="0"/><rect id="ePatwD6Jo0543" width="1.11236" height="5.5618" rx="0" ry="0" transform="matrix(1 0 0 1 5.28371 55.0618)" fill="rgb(255,42,42)" stroke="rgb(0,0,0)" stroke-width="1.665" stroke-opacity="0"/><rect id="ePatwD6Jo0544" width="1.11236" height="5.5618" rx="0" ry="0" transform="matrix(1 0 0 1 8.25 55.0618)" fill="rgb(255,42,42)" stroke="rgb(0,0,0)" stroke-width="1.665" stroke-opacity="0"/></g><g id="ePatwD6Jo0545_to" transform="translate(197.797284,197.92517)"><g id="ePatwD6Jo0545" transform="scale(1,1.454783) translate(-108.272282,-203.785774)"><path id="ePatwD6Jo0546" style="mix-blend-mode:hard-light" d="M109.89716,200.13538L126.0806,199.86498L129.53989,203.58298L120.87664,207.70657L109.59635,205.20537Z" transform="matrix(1 0 0 0.711452 -1.563793 58.37111)" opacity="0.74359" fill="url(#ePatwD6Jo0546-fill)" stroke="rgb(0,0,0)" stroke-width="0.105497" stroke-opacity="0"/><path id="ePatwD6Jo0547" d="M91.698403,203.30812L91.698403,202.60318L92.044331,202.55148C92.335088,202.50808,92.361583,202.49368,92.210454,202.46158L92.030649,202.42338L92.390938,202.11495C93.043429,201.55635,93.992582,200.82235,94.021049,200.85434C94.036429,200.87164,94.071509,201.12549,94.099009,201.4185L94.149019,201.95125L94.157019,201.25835L94.165019,200.56545L97.594224,200.56545L101.02343,200.56545L101.02343,202.28925L101.02343,204.01305L97.597096,204.01305L94.17076,204.01305L94.1494,203.59054L94.12804,203.16805L94.11645,203.59054L94.10486,204.01305L92.90163,204.01305L91.6984,204.01305ZM94.14596,202.17518C94.12676,202.12118,94.1125,202.13728,94.10961,202.21598C94.10701,202.28718,94.12122,202.32716,94.14121,202.30478C94.1612,202.28228,94.16334,202.22408,94.14601,202.17522Z" opacity="0.74359" fill="url(#ePatwD6Jo0547-fill)" stroke="none" stroke-width="0.063772"/><rect id="ePatwD6Jo0548" width="7.978462" height="2.957431" rx="0" ry="0" transform="matrix(0.946182 0 0 0.724402 92.461451 202.706626)" fill="rgb(85,0,0)" stroke="none" stroke-width="0"/><rect id="ePatwD6Jo0549" width="9.438914" height="7.375735" rx="0" ry="0" transform="matrix(1.309524 0 0 0.566098 97.536676 200.618931)" fill="rgb(85,0,0)" stroke="none" stroke-width="0"/><path id="ePatwD6Jo0550" d="M91.698403,203.30988L91.698403,202.60672L92.074412,202.55302C92.409102,202.50522,92.427504,202.49512,92.241876,202.46182L92.03333,202.42442L92.271957,202.21681C92.849,201.71478,93.994788,200.82481,94.023113,200.85664C94.040213,200.87584,94.075213,201.22125,94.100903,201.62419L94.147613,202.35682L94.156313,201.46112L94.165013,200.56542L97.594219,200.56542L101.02343,200.56542L101.02343,202.28922L101.02343,204.01302L97.597107,204.01302L94.170772,204.01302L94.149412,203.59051L94.128052,203.16802L94.116462,203.59051L94.104872,204.01302L92.901643,204.01302L91.698413,204.01302Z" opacity="0.74359" fill="rgb(85,0,0)" stroke="none" stroke-width="0.063772"/><path id="ePatwD6Jo0551" d="M91.698403,203.31262L91.698403,202.61219L92.134573,202.54499C92.493689,202.48969,92.524946,202.47609,92.311508,202.46809C92.168927,202.46309,92.066668,202.43209,92.084266,202.40009C92.153246,202.2747,93.994656,200.82471,94.031856,200.8665C94.053626,200.891,94.082146,201.60895,94.095246,202.46203L94.119046,204.01307L92.908729,204.01307L91.698413,204.01307Z" opacity="0.74359" fill="rgb(85,0,0)" stroke="none" stroke-width="0.063772"/><path id="ePatwD6Jo0552" d="M91.698403,203.31262L91.698403,202.61219L92.134573,202.54499C92.493689,202.48969,92.524946,202.47609,92.311508,202.46809C92.168927,202.46309,92.066668,202.43209,92.084266,202.40009C92.153246,202.2747,93.994656,200.82471,94.031856,200.8665C94.053626,200.891,94.082146,201.60895,94.095246,202.46203L94.119046,204.01307L92.908729,204.01307L91.698413,204.01307ZM94.165025,202.28925L94.165025,200.56545L97.59423,200.56545L101.02344,200.56545L101.02344,202.28925L101.02344,204.01305L97.59423,204.01305L94.165025,204.01305Z" opacity="0.74359" fill="rgb(85,0,0)" stroke="none" stroke-width="0.063772"/><path id="ePatwD6Jo0553" d="M94.165025,202.28925L94.165025,200.56545L97.59423,200.56545L101.02344,200.56545L101.02344,202.28925L101.02344,204.01305L97.59423,204.01305L94.165025,204.01305Z" opacity="0.74359" fill="rgb(85,0,0)" stroke="none" stroke-width="0.063772"/><path id="ePatwD6Jo0554" d="M91.698403,203.31119L91.698403,202.60933L92.164654,202.55323L92.630906,202.49713L92.330099,202.46083L92.029291,202.42443L92.239857,202.24692C92.853296,201.72979,93.999431,200.83004,94.018058,200.85096C94.064458,200.90306,94.133998,202.59987,94.117868,203.28633L94.100788,204.01303L92.899593,204.01303L91.698399,204.01303Z" opacity="0.74359" fill="rgb(85,0,0)" stroke="none" stroke-width="0.063772"/><path id="ePatwD6Jo0555" d="M91.698403,203.31351L91.698403,202.61397L92.224816,202.54677C92.737653,202.48127,92.741976,202.47927,92.392409,202.46897C92.08225,202.45997,92.045535,202.44537,92.121682,202.36319C92.322272,202.14665,93.99833,200.82885,94.029132,200.86347C94.047522,200.88417,94.075212,201.60126,94.090672,202.45706L94.118772,204.01309L92.908591,204.01309L91.698411,204.01309Z" opacity="0.74359" fill="rgb(85,0,0)" stroke="none" stroke-width="0.063772"/><path id="ePatwD6Jo0556" d="M91.698403,203.30956L91.698403,202.60607L92.284978,202.54927L92.871551,202.49247L92.450422,202.45837L92.029291,202.42427L93.012474,201.62495C93.553224,201.18532,94.010714,200.84255,94.029117,200.86323C94.047517,200.88393,94.075217,201.60104,94.090667,202.45684L94.118767,204.01287L92.908586,204.01287L91.698406,204.01287Z" opacity="0.74359" fill="rgb(85,0,0)" stroke="none" stroke-width="0.063772"/><path id="ePatwD6Jo0557" d="M91.711407,203.28635L91.728487,202.55965L92.300021,202.52365L92.871554,202.48765L92.450425,202.45605L92.029294,202.42445L93.012477,201.62513C93.553227,201.1855,94.011074,200.84313,94.029913,200.8643C94.048753,200.8855,94.077003,201.60259,94.092683,202.45792L94.121203,204.01305L92.907769,204.01305L91.694332,204.01305Z" opacity="0.74359" fill="rgb(85,0,0)" stroke="none" stroke-width="0.063772"/><path id="ePatwD6Jo0558" d="M91.911975,202.4693C91.943415,202.4382,92.415828,202.0537,92.961795,201.61488C93.50776,201.17605,93.9883,200.78711,94.029661,200.75056C94.089041,200.69806,94.104861,200.8779,94.104861,201.60498L94.104861,202.52585L92.979841,202.52585C92.36108,202.52585,91.88054,202.50035,91.911974,202.46925Z" opacity="0.74359" fill="rgb(85,0,0)" stroke="none" stroke-width="0.063772"/><path id="ePatwD6Jo0559" d="M91.698403,203.30325L91.698403,202.59345L92.901633,202.59345L94.104862,202.59345L94.104862,203.30325L94.104862,204.01305L92.901633,204.01305L91.698403,204.01305Z" opacity="0.74359" fill="rgb(85,0,0)" stroke="none" stroke-width="0.063772"/><path id="ePatwD6Jo0560" d="M91.647234,202.5618C94.156626,200.52436,94.156626,200.52436,94.156626,200.52436L94.156626,200.52436" opacity="0.74359" fill="none" stroke="rgb(0,0,0)" stroke-width="0.105497"/><rect id="ePatwD6Jo0561" width="2.50939" height="1.46277" rx="0" ry="0" transform="matrix(1 0 0 1 91.6472 202.562)" opacity="0.74359" fill="rgb(85,0,0)" stroke="none" stroke-width="0.105497"/><rect id="ePatwD6Jo0562" width="1.48185" height="2.92856" rx="0" ry="0" transform="matrix(1 0 0 1 101.079 201.096)" opacity="0.74359" fill="rgb(85,0,0)" stroke="none" stroke-width="0.105497"/><rect id="ePatwD6Jo0563" width="6.92256" height="3.5002" rx="0" ry="0" transform="matrix(1 0 0 1 94.1566 200.524)" opacity="0.74359" fill="rgb(85,0,0)" stroke="none" stroke-width="0.105497"/><rect id="ePatwD6Jo0564" width="6.334233" height="3.170884" rx="0" ry="0" transform="matrix(1.705201 0 0 0.642126 87.060881 202.812887)" fill="rgb(85,0,0)" stroke="none" stroke-width="0"/></g></g><g id="ePatwD6Jo0565_to" transform="translate(219.1172,146.352447)"><g id="ePatwD6Jo0565" transform="translate(-126.349504,-160.71638)"><path id="ePatwD6Jo0566" style="mix-blend-mode:hard-light" d="M127.90523,157.76928L136.18867,157.56376L137.95929,160.3896L133.52503,163.52371L127.75126,161.62269Z" transform="matrix(1 0 0 0.715991 0 45.123791)" opacity="0.74359" fill="url(#ePatwD6Jo0566-fill)" stroke="rgb(0,0,0)" stroke-width="0.0658" stroke-opacity="0"/><path id="ePatwD6Jo0567" d="M118.59026,160.18069L118.59026,159.64491L118.76732,159.60561C118.91614,159.57261,118.9297,159.56171,118.85232,159.53731L118.76032,159.50831L118.94473,159.27388C119.27871,158.84933,119.76453,158.29146,119.7791,158.31577C119.7871,158.32887,119.8049,158.52185,119.819,158.74455L119.8446,159.14947L119.8486,158.62283L119.8526,158.0962L121.60782,158.0962L123.36305,158.0962L123.36305,159.40636L123.36305,160.71652L121.60929,160.71652L119.85554,160.71652L119.84464,160.3954L119.83374,160.07428L119.82774,160.3954L119.82174,160.71652L119.20587,160.71652L118.59001,160.71652ZM119.84303,159.31961C119.83303,159.27861,119.82593,159.29081,119.82443,159.35061C119.82343,159.40481,119.83043,159.43511,119.84063,159.41801C119.85083,159.40091,119.85193,159.35661,119.84263,159.31951Z" opacity="0.74359" fill="url(#ePatwD6Jo0567-fill)" stroke="none" stroke-width="0.039776"/><path id="ePatwD6Jo0568" d="M118.59026,160.18204L118.59026,159.6476L118.78272,159.6068C118.95403,159.5705,118.96345,159.5629,118.86842,159.5375L118.76168,159.509L118.88382,159.35121C119.17918,158.96964,119.76565,158.29323,119.78014,158.31742C119.78914,158.33202,119.80684,158.59454,119.81994,158.90079L119.84384,159.45762L119.84784,158.77686L119.85184,158.09609L121.60707,158.09609L123.36229,158.09609L123.36229,159.40625L123.36229,160.71641L121.60854,160.71641L119.85478,160.71641L119.84388,160.39529L119.83298,160.07417L119.82698,160.39529L119.82098,160.71641L119.20511,160.71641L118.58924,160.71641Z" opacity="0.74359" fill="rgb(85,0,0)" stroke="none" stroke-width="0.039776"/><path id="ePatwD6Jo0569" d="M118.59026,160.18411L118.59026,159.65176L118.81351,159.60066C118.99732,159.55866,119.01332,159.54826,118.90411,159.54216C118.83111,159.53816,118.77879,159.51486,118.7878,159.49046C118.8231,159.39516,119.76563,158.29309,119.78467,158.32486C119.79577,158.34346,119.81037,158.88916,119.81707,159.53753L119.82927,160.71638L119.20977,160.71638L118.59028,160.71638Z" opacity="0.74359" fill="rgb(85,0,0)" stroke="none" stroke-width="0.039776"/><path id="ePatwD6Jo0570" d="M118.59026,160.18411L118.59026,159.65176L118.81351,159.60066C118.99732,159.55866,119.01332,159.54826,118.90411,159.54216C118.83111,159.53816,118.77879,159.51486,118.7878,159.49046C118.8231,159.39516,119.76563,158.29309,119.78467,158.32486C119.79577,158.34346,119.81037,158.88916,119.81707,159.53753L119.82927,160.71638L119.20977,160.71638L118.59028,160.71638ZM119.85279,159.40631L119.85279,158.09615L121.60802,158.09615L123.36324,158.09615L123.36324,159.40631L123.36324,160.71647L121.60802,160.71647L119.85279,160.71647Z" opacity="0.74359" fill="rgb(85,0,0)" stroke="none" stroke-width="0.039776"/><path id="ePatwD6Jo0571" d="M119.85279,159.40631L119.85279,158.09615L121.60802,158.09615L123.36324,158.09615L123.36324,159.40631L123.36324,160.71647L121.60802,160.71647L119.85279,160.71647Z" opacity="0.74359" fill="rgb(85,0,0)" stroke="none" stroke-width="0.039776"/><path id="ePatwD6Jo0572" d="M118.59026,160.18303L118.59026,159.64959L118.82891,159.60699L119.06756,159.56439L118.91359,159.53679L118.75962,159.50919L118.8674,159.37427C119.18139,158.98123,119.76803,158.29738,119.77757,158.31328C119.80127,158.35288,119.83687,159.64253,119.82867,160.16427L119.81967,160.71659L119.20484,160.71659L118.59002,160.71659Z" opacity="0.74359" fill="rgb(85,0,0)" stroke="none" stroke-width="0.039776"/><path id="ePatwD6Jo0573" d="M118.59026,160.18479L118.59026,159.65311L118.8597,159.60201C119.12219,159.55231,119.12441,159.55071,118.9455,159.54281C118.78675,159.53581,118.76796,159.52491,118.80693,159.46241C118.9096,159.29783,119.76749,158.29625,119.78325,158.32255C119.79225,158.33825,119.80685,158.88331,119.81475,159.53376L119.82915,160.7164L119.20973,160.7164L118.5903,160.7164Z" opacity="0.74359" fill="rgb(85,0,0)" stroke="none" stroke-width="0.039776"/><path id="ePatwD6Jo0574" d="M118.59026,160.18179L118.59026,159.6471L118.89049,159.604L119.19073,159.5609L118.97518,159.535L118.75962,159.5091L119.26286,158.90159C119.53964,158.56745,119.77381,158.30693,119.78323,158.32265C119.79223,158.33835,119.80683,158.88341,119.81473,159.53386L119.82913,160.71651L119.20971,160.71651L118.59028,160.71651Z" opacity="0.74359" fill="rgb(85,0,0)" stroke="none" stroke-width="0.039776"/><path id="ePatwD6Jo0575" d="M118.59691,160.16415L118.60591,159.61182L118.89844,159.58442L119.19098,159.55702L118.97543,159.53302L118.75987,159.50902L119.26311,158.90151C119.53989,158.56737,119.77424,158.30715,119.78388,158.32324C119.79388,158.33934,119.80798,158.88438,119.81598,159.53446L119.83058,160.71643L119.20949,160.71643L118.58839,160.71643Z" opacity="0.74359" fill="rgb(85,0,0)" stroke="none" stroke-width="0.039776"/><path id="ePatwD6Jo0576" d="M118.69957,159.54315C118.71567,159.51955,118.95747,159.22729,119.23692,158.89376C119.51637,158.56023,119.76233,158.26462,119.7835,158.23684C119.8139,158.19694,119.822,158.33364,119.822,158.88623L119.822,159.58614L119.24616,159.58614C118.92945,159.58614,118.68349,159.56684,118.69957,159.54314Z" opacity="0.74359" fill="rgb(85,0,0)" stroke="none" stroke-width="0.039776"/><path id="ePatwD6Jo0577" d="M118.59026,160.17699L118.59026,159.63751L119.20613,159.63751L119.822,159.63751L119.822,160.17699L119.822,160.71647L119.20613,160.71647L118.59026,160.71647Z" opacity="0.74359" fill="rgb(85,0,0)" stroke="none" stroke-width="0.039776"/><path id="ePatwD6Jo0578" d="M118.56407,159.61346C119.84849,158.06492,119.84849,158.06492,119.84849,158.06492L119.84849,158.06492" opacity="0.74359" fill="none" stroke="rgb(0,0,0)" stroke-width="0.0658"/><rect id="ePatwD6Jo0579" width="1.28442" height="1.11177" rx="0" ry="0" transform="matrix(1 0 0 1 118.564 159.613)" opacity="0.74359" fill="rgb(85,0,0)" stroke="none" stroke-width="0.0658"/><rect id="ePatwD6Jo0580" width="0.758481" height="2.22583" rx="0" ry="0" transform="matrix(1 0 0 1 123.392 158.499)" opacity="0.74359" fill="rgb(85,0,0)" stroke="none" stroke-width="0.0658"/><rect id="ePatwD6Jo0581" width="3.54329" height="2.66031" rx="0" ry="0" transform="matrix(1 0 0 1 119.848 158.065)" opacity="0.74359" fill="rgb(85,0,0)" stroke="none" stroke-width="0.0658"/><rect id="ePatwD6Jo0582" width="5.542957" height="1.3073" rx="0" ry="0" transform="matrix(1 0 0 1 114.739724 159.41801)" fill="rgb(85,0,0)" stroke="none" stroke-width="0"/><rect id="ePatwD6Jo0583" width="4.904369" height="2.95603" rx="0" ry="0" transform="matrix(1 0 0 1 122.846891 157.76928)" fill="rgb(85,0,0)" stroke="none" stroke-width="0"/></g></g><g id="ePatwD6Jo0584_to" transform="translate(228.515017,107.012741)"><g id="ePatwD6Jo0584" transform="translate(-143.404594,-132.749619)"><path id="ePatwD6Jo0585" style="mix-blend-mode:hard-light" d="M144.35832,129.97722L153.85729,129.77186L155.88774,132.59559L150.80279,135.72737L144.18176,133.82777Z" transform="matrix(0.607817 0 0 0.672403 56.545635 43.670091)" opacity="0.74359" fill="url(#ePatwD6Jo0585-fill)" stroke="rgb(0,0,0)" stroke-width="0.070437" stroke-opacity="0"/><path id="ePatwD6Jo0586" d="M133.67645,132.38684L133.67645,131.85145L133.87949,131.81215C134.05016,131.77915,134.06571,131.76825,133.97699,131.74385L133.87145,131.71485L134.08293,131.4806C134.46591,131.05637,135.02302,130.49891,135.03973,130.5232C135.04873,130.5363,135.06933,130.72913,135.08553,130.95167L135.11493,131.35628L135.11993,130.83004L135.12493,130.3038L137.13772,130.3038L139.15052,130.3038L139.15052,131.61298L139.15052,132.92217L137.13941,132.92217L135.1283,132.92217L135.1158,132.60129L135.1033,132.28041L135.0963,132.60129L135.0893,132.92217L134.38306,132.92217L133.67681,132.92217ZM135.11306,131.5264C135.10176,131.4854,135.09346,131.4976,135.09176,131.5574C135.08976,131.6115,135.09876,131.6418,135.11036,131.6248C135.12206,131.6077,135.12336,131.5635,135.11336,131.5264Z" opacity="0.74359" fill="url(#ePatwD6Jo0586-fill)" stroke="none" stroke-width="0.042579"/><path id="ePatwD6Jo0587" d="M133.67645,132.38818L133.67645,131.85415L133.89715,131.81335C134.0936,131.77705,134.1044,131.76945,133.99545,131.74415L133.87304,131.71575L134.0131,131.55807C134.3518,131.17679,135.02433,130.50088,135.04095,130.52505C135.05105,130.53965,135.07155,130.80196,135.08665,131.10799L135.11405,131.66441L135.11905,130.98415L135.12405,130.30388L137.13685,130.30388L139.14964,130.30388L139.14964,131.61307L139.14964,132.92225L137.13853,132.92225L135.12742,132.92225L135.11492,132.60137L135.10242,132.28049L135.09542,132.60137L135.08842,132.92225L134.38218,132.92225L133.67594,132.92225Z" opacity="0.74359" fill="rgb(85,0,0)" stroke="none" stroke-width="0.042579"/><path id="ePatwD6Jo0588" d="M133.67645,132.39026L133.67645,131.8583L133.93246,131.8073C134.14325,131.7653,134.16159,131.755,134.03632,131.7488C133.95262,131.7448,133.89261,131.7215,133.90294,131.6972C133.94344,131.602,135.02425,130.50073,135.04609,130.53247C135.05889,130.55107,135.07559,131.09634,135.08329,131.74423L135.09729,132.92221L134.38689,132.92221L133.67649,132.92221Z" opacity="0.74359" fill="rgb(85,0,0)" stroke="none" stroke-width="0.042579"/><path id="ePatwD6Jo0589" d="M133.67645,132.39026L133.67645,131.8583L133.93246,131.8073C134.14325,131.7653,134.16159,131.755,134.03632,131.7488C133.95262,131.7448,133.89261,131.7215,133.90294,131.6972C133.94344,131.602,135.02425,130.50073,135.04609,130.53247C135.05889,130.55107,135.07559,131.09634,135.08329,131.74423L135.09729,132.92221L134.38689,132.92221L133.67649,132.92221ZM135.12425,131.61303L135.12425,130.30385L137.13704,130.30385L139.14983,130.30385L139.14983,131.61303L139.14983,132.92222L137.13704,132.92222L135.12425,132.92222Z" opacity="0.74359" fill="rgb(85,0,0)" stroke="none" stroke-width="0.042579"/><path id="ePatwD6Jo0590" d="M135.12425,131.61303L135.12425,130.30385L137.13704,130.30385L139.14983,130.30385L139.14983,131.61303L139.14983,132.92222L137.13704,132.92222L135.12425,132.92222Z" opacity="0.74359" fill="rgb(85,0,0)" stroke="none" stroke-width="0.042579"/><path id="ePatwD6Jo0591" d="M133.67645,132.38917L133.67645,131.85613L133.95012,131.81353L134.22379,131.77093L134.04723,131.74333L133.87067,131.71573L133.99426,131.58092C134.35432,131.18817,135.02705,130.50482,135.03799,130.52072C135.06519,130.56032,135.10599,131.84898,135.09659,132.37032L135.08659,132.92223L134.38154,132.92223L133.67649,132.92223Z" opacity="0.74359" fill="rgb(85,0,0)" stroke="none" stroke-width="0.042579"/><path id="ePatwD6Jo0592" d="M133.67645,132.39094L133.67645,131.85965L133.98543,131.80865C134.28644,131.75895,134.28898,131.75745,134.08383,131.74955C133.90178,131.74255,133.88023,131.73165,133.92493,131.66925C134.04266,131.50479,135.02644,130.50396,135.04452,130.53024C135.05532,130.54594,135.07152,131.09058,135.08062,131.74055L135.09712,132.92231L134.3868,132.92231L133.67647,132.92231Z" opacity="0.74359" fill="rgb(85,0,0)" stroke="none" stroke-width="0.042579"/><path id="ePatwD6Jo0593" d="M133.67645,132.38793L133.67645,131.85365L134.02074,131.81055L134.36504,131.76745L134.11785,131.74155L133.87067,131.71565L134.44775,131.10859C134.76515,130.7747,135.03367,130.51437,135.04448,130.53007C135.05528,130.54577,135.07158,131.09042,135.08058,131.74039L135.09708,132.92215L134.38676,132.92215L133.67643,132.92215Z" opacity="0.74359" fill="rgb(85,0,0)" stroke="none" stroke-width="0.042579"/><path id="ePatwD6Jo0594" d="M133.68408,132.37031L133.69408,131.8184L134.02954,131.791L134.36501,131.7636L134.11782,131.7396L133.87064,131.7156L134.44772,131.10853C134.76512,130.77465,135.03385,130.51462,135.04491,130.5307C135.05601,130.5468,135.07251,131.09142,135.08171,131.74101L135.09841,132.9221L134.38618,132.9221L133.67395,132.9221Z" opacity="0.74359" fill="rgb(85,0,0)" stroke="none" stroke-width="0.042579"/><path id="ePatwD6Jo0595" d="M133.80181,131.74978C133.82031,131.72618,134.09755,131.43414,134.41801,131.10087C134.73846,130.76759,135.02052,130.47219,135.0448,130.44443C135.0797,130.40453,135.0889,130.54113,135.0889,131.09334L135.0889,131.79273L134.42856,131.79273C134.06537,131.79273,133.78332,131.77343,133.80177,131.74973Z" opacity="0.74359" fill="rgb(85,0,0)" stroke="none" stroke-width="0.042579"/><path id="ePatwD6Jo0596" d="M133.67645,132.38314L133.67645,131.84407L134.38269,131.84407L135.08894,131.84407L135.08894,132.38314L135.08894,132.92222L134.38269,132.92222L133.67645,132.92222Z" opacity="0.74359" fill="rgb(85,0,0)" stroke="none" stroke-width="0.042579"/><path id="ePatwD6Jo0597" d="M133.64642,131.82003C135.11932,130.27264,135.11932,130.27264,135.11932,130.27264L135.11932,130.27264" opacity="0.74359" fill="none" stroke="rgb(0,0,0)" stroke-width="0.070437"/><rect id="ePatwD6Jo0598" width="1.4729" height="1.11094" rx="0" ry="0" transform="matrix(1 0 0 1 133.646 131.82)" opacity="0.74359" fill="rgb(85,0,0)" stroke="none" stroke-width="0.070437"/><rect id="ePatwD6Jo0599" width="0.869783" height="2.22417" rx="0" ry="0" transform="matrix(1 0 0 1 139.183 130.707)" opacity="0.74359" fill="rgb(85,0,0)" stroke="none" stroke-width="0.070437"/><rect id="ePatwD6Jo05100" width="4.06324" height="2.65833" rx="0" ry="0" transform="matrix(1 0 0 1 135.119 130.273)" opacity="0.74359" fill="rgb(85,0,0)" stroke="none" stroke-width="0.070437"/><rect id="ePatwD6Jo05101" width="5.03212" height="2.99773" rx="0" ry="0" transform="matrix(1 0 0 1 139.14964 130.83004)" fill="rgb(85,0,0)" stroke="none" stroke-width="0"/><rect id="ePatwD6Jo05102" width="11.565212" height="1.54736" rx="0" ry="0" transform="matrix(1 0 0 1 130.100488 132.28041)" fill="rgb(85,0,0)" stroke="none" stroke-width="0"/></g></g><g id="ePatwD6Jo05103_to" transform="translate(-9.969608,131.771141)"><g id="ePatwD6Jo05103" transform="scale(1,1.536811) translate(-78.681389,-130.043007)"><path id="ePatwD6Jo05104" style="mix-blend-mode:hard-light" d="M77.715372,127.41873L68.094145,127.22433L66.037565,129.89721L71.18796,132.86167L77.894207,131.06356Z" transform="matrix(0.397979 0 0 0.582961 51.517053 53.598666)" opacity="0.74359" fill="url(#ePatwD6Jo05104-fill)" stroke="rgb(0,0,0)" stroke-width="0.068969" stroke-opacity="0"/><path id="ePatwD6Jo05105" d="M88.534726,129.69961L88.534726,129.19283L88.329067,129.15563C88.156209,129.12443,88.140458,129.11403,88.230307,129.09103L88.337203,129.06353L88.123009,128.84179C87.735095,128.44022,87.170815,127.91254,87.153889,127.93554C87.144789,127.94794,87.123899,128.13047,87.107539,128.34111L87.077809,128.72411L87.073009,128.22598L87.068209,127.72786L85.029509,127.72786L82.99081,127.72786L82.99081,128.9671L82.99081,130.20634L85.027803,130.20634L87.064794,130.20634L87.077494,129.9026L87.090194,129.59887L87.097094,129.9026L87.103994,130.20634L87.819327,130.20634L88.534662,130.20634ZM87.079627,128.88514C87.091057,128.84634,87.099527,128.85784,87.101227,128.91454C87.102827,128.96574,87.094327,128.99444,87.082437,128.97834C87.070567,128.96224,87.069287,128.92024,87.079637,128.88524Z" opacity="0.74359" fill="url(#ePatwD6Jo05105-fill)" stroke="none" stroke-width="0.041691"/><path id="ePatwD6Jo05106" d="M88.534726,129.70088L88.534726,129.19538L88.311184,129.15678C88.112208,129.12238,88.101268,129.11518,88.211624,129.09128L88.335608,129.06438L88.193741,128.91513C87.850682,128.55421,87.1695,127.91441,87.15266,127.93729C87.14251,127.95109,87.12168,128.19941,87.10641,128.48909L87.07864,129.01578L87.07344,128.37186L87.06824,127.72794L85.029543,127.72794L82.990843,127.72794L82.990843,128.96718L82.990843,130.20642L85.027834,130.20642L87.064827,130.20642L87.077527,129.90269L87.090227,129.59895L87.097127,129.90269L87.104027,130.20642L87.819359,130.20642L88.534692,130.20642Z" opacity="0.74359" fill="rgb(85,0,0)" stroke="none" stroke-width="0.041691"/><path id="ePatwD6Jo05107" d="M88.534726,129.70285L88.534726,129.19931L88.275417,129.15101C88.061919,129.11131,88.043337,129.10151,88.170228,129.09571C88.254998,129.09171,88.315789,129.06981,88.305325,129.04681C88.264315,128.95671,87.169579,127.91425,87.147464,127.9443C87.134514,127.9619,87.117564,128.47805,87.109784,129.09133L87.095624,130.20637L87.81517,130.20637L88.534716,130.20637Z" opacity="0.74359" fill="rgb(85,0,0)" stroke="none" stroke-width="0.041691"/><path id="ePatwD6Jo05108" d="M88.534726,129.70285L88.534726,129.19931L88.275417,129.15101C88.061919,129.11131,88.043337,129.10151,88.170228,129.09571C88.254998,129.09171,88.315789,129.06981,88.305325,129.04681C88.264315,128.95671,87.169579,127.91425,87.147462,127.9443C87.134512,127.9619,87.117562,128.47805,87.109782,129.09133L87.095622,130.20637L87.815168,130.20637L88.534714,130.20637ZM87.068294,128.96714L87.068294,127.7279L85.029594,127.7279L82.990895,127.7279L82.990895,128.96714L82.990895,130.20639L85.029594,130.20639L87.068294,130.20639Z" opacity="0.74359" fill="rgb(85,0,0)" stroke="none" stroke-width="0.041691"/><path id="ePatwD6Jo05109" d="M87.068294,128.96714L87.068294,127.7279L85.029594,127.7279L82.990895,127.7279L82.990895,128.96714L82.990895,130.20639L85.029594,130.20639L87.068294,130.20639Z" opacity="0.74359" fill="rgb(85,0,0)" stroke="none" stroke-width="0.041691"/><path id="ePatwD6Jo05110" d="M88.534726,129.70182L88.534726,129.19725L88.257534,129.15695L87.980342,129.11665L88.159176,129.09055L88.338008,129.06445L88.212826,128.93684C87.848129,128.56508,87.166741,127.91824,87.155667,127.93328C87.128077,127.97078,87.086737,129.19058,87.096327,129.68407L87.106477,130.2065L87.8206,130.2065L88.534723,130.2065Z" opacity="0.74359" fill="rgb(85,0,0)" stroke="none" stroke-width="0.041691"/><path id="ePatwD6Jo05111" d="M88.534726,129.70349L88.534726,129.20059L88.221767,129.15229C87.916881,129.10529,87.914312,129.10379,88.122127,129.09629C88.306519,129.08929,88.328347,129.07929,88.283076,129.02029C88.163825,128.86462,87.167389,127.91725,87.149078,127.94213C87.138138,127.95703,87.121678,128.47253,87.112488,129.08777L87.095778,130.2064L87.815243,130.2064L88.534709,130.2064Z" opacity="0.74359" fill="rgb(85,0,0)" stroke="none" stroke-width="0.041691"/><path id="ePatwD6Jo05112" d="M88.534726,129.70065L88.534726,129.19491L88.186,129.15411L87.837277,129.11331L88.087642,129.08881L88.338008,129.06431L87.753497,128.48967C87.432014,128.17362,87.160032,127.9272,87.149092,127.94207C87.138162,127.95697,87.121682,128.47248,87.112502,129.08772L87.095792,130.20635L87.815257,130.20635L88.534723,130.20635Z" opacity="0.74359" fill="rgb(85,0,0)" stroke="none" stroke-width="0.041691"/><path id="ePatwD6Jo05113" d="M88.526995,129.68396L88.516845,129.16154L88.177062,129.13564L87.83728,129.10974L88.087645,129.08704L88.338011,129.06434L87.753498,128.4897C87.432017,128.17366,87.159823,127.92752,87.148623,127.94274C87.137423,127.95794,87.120633,128.4735,87.111303,129.0884L87.094353,130.20638L87.815754,130.20638L88.537154,130.20638Z" opacity="0.74359" fill="rgb(85,0,0)" stroke="none" stroke-width="0.041691"/><path id="ePatwD6Jo05114" d="M88.407755,129.09658C88.389065,129.07418,88.108209,128.79781,87.783626,128.48234C87.459043,128.16687,87.173358,127.88725,87.148768,127.86098C87.113468,127.82328,87.104058,127.95248,87.104058,128.47522L87.104058,129.13724L87.772894,129.13724C88.140753,129.13724,88.42644,129.11894,88.407752,129.09664Z" opacity="0.74359" fill="rgb(85,0,0)" stroke="none" stroke-width="0.041691"/><path id="ePatwD6Jo05115" d="M88.534726,129.69611L88.534726,129.18583L87.819393,129.18583L87.104061,129.18583L87.104061,129.69611L87.104061,130.20639L87.819393,130.20639L88.534726,130.20639Z" opacity="0.74359" fill="rgb(85,0,0)" stroke="none" stroke-width="0.041691"/><path id="ePatwD6Jo05116" d="M88.565146,129.16308C87.073287,127.69836,87.073287,127.69836,87.073287,127.69836L87.073287,127.69836" opacity="0.74359" fill="none" stroke="rgb(0,0,0)" stroke-width="0.068969"/><rect id="ePatwD6Jo05117" width="1.49186" height="1.05159" rx="0" ry="0" transform="matrix(-1 0 0 1 88.5651 129.163)" opacity="0.74359" fill="rgb(85,0,0)" stroke="none" stroke-width="0.068969"/><rect id="ePatwD6Jo05118" width="0.880977" height="2.10535" rx="0" ry="0" transform="matrix(-1 0 0 1 82.9578 127.59076)" opacity="0.74359" fill="rgb(85,0,0)" stroke="none" stroke-width="0.068969"/><rect id="ePatwD6Jo05119" width="4.11553" height="2.51631" rx="0" ry="0" transform="matrix(-1 0 0 1 87.0733 127.698)" opacity="0.74359" fill="rgb(85,0,0)" stroke="none" stroke-width="0.068969"/><rect id="ePatwD6Jo05120" width="4.11553" height="2.51631" rx="0" ry="0" transform="matrix(-2.05873 0 0 0.404609 91.304677 129.196469)" fill="rgb(85,0,0)" stroke="none" stroke-width="0.068969"/></g></g><g id="ePatwD6Jo05121" transform="matrix(1 0 0 1 0.000001 0)"/></svg>